<mxfile host="app.diagrams.net" modified="2023-10-14T07:30:41.863Z" agent="Mozilla/5.0 (Windows NT 10.0; Win64; x64) AppleWebKit/537.36 (KHTML, like Gecko) Chrome/117.0.0.0 Safari/537.36" etag="EgCTRMFWcWeKAC1JkG6N" version="22.0.4" type="device">
  <diagram name="Страница — 1" id="FOCWOrhnHmGLOFquA8U6">
    <mxGraphModel dx="1304" dy="718" grid="1" gridSize="10" guides="1" tooltips="1" connect="1" arrows="1" fold="1" page="1" pageScale="1" pageWidth="827" pageHeight="1169" math="0" shadow="0">
      <root>
        <mxCell id="0" />
        <mxCell id="1" parent="0" />
        <mxCell id="mvhSTo44je8Wj7MuLDzE-1" value="Тьютор" style="shape=umlActor;verticalLabelPosition=bottom;verticalAlign=top;html=1;outlineConnect=0;" parent="1" vertex="1">
          <mxGeometry x="180" y="540" width="30" height="60" as="geometry" />
        </mxCell>
        <mxCell id="mvhSTo44je8Wj7MuLDzE-4" value="Пользователь" style="shape=umlActor;verticalLabelPosition=bottom;verticalAlign=top;html=1;outlineConnect=0;" parent="1" vertex="1">
          <mxGeometry x="770" y="540" width="30" height="60" as="geometry" />
        </mxCell>
        <mxCell id="mvhSTo44je8Wj7MuLDzE-6" value="" style="swimlane;startSize=0;" parent="1" vertex="1">
          <mxGeometry x="250" y="200" width="460" height="720" as="geometry">
            <mxRectangle x="340" y="200" width="50" height="40" as="alternateBounds" />
          </mxGeometry>
        </mxCell>
        <mxCell id="mvhSTo44je8Wj7MuLDzE-8" value="Пройти тест" style="ellipse;whiteSpace=wrap;html=1;" parent="mvhSTo44je8Wj7MuLDzE-6" vertex="1">
          <mxGeometry x="170" y="590" width="120" height="80" as="geometry" />
        </mxCell>
        <mxCell id="mvhSTo44je8Wj7MuLDzE-9" value="Создать тест" style="ellipse;whiteSpace=wrap;html=1;" parent="mvhSTo44je8Wj7MuLDzE-6" vertex="1">
          <mxGeometry x="230" y="90" width="120" height="80" as="geometry" />
        </mxCell>
        <mxCell id="mvhSTo44je8Wj7MuLDzE-7" value="Система тестирования" style="text;html=1;align=center;verticalAlign=middle;resizable=0;points=[];autosize=1;strokeColor=none;fillColor=none;" parent="mvhSTo44je8Wj7MuLDzE-6" vertex="1">
          <mxGeometry x="20" y="18" width="150" height="30" as="geometry" />
        </mxCell>
        <mxCell id="mvhSTo44je8Wj7MuLDzE-10" value="Редактировать тест" style="ellipse;whiteSpace=wrap;html=1;" parent="mvhSTo44je8Wj7MuLDzE-6" vertex="1">
          <mxGeometry x="230" y="190" width="120" height="80" as="geometry" />
        </mxCell>
        <mxCell id="mvhSTo44je8Wj7MuLDzE-13" value="Удалить тест" style="ellipse;whiteSpace=wrap;html=1;" parent="mvhSTo44je8Wj7MuLDzE-6" vertex="1">
          <mxGeometry x="230" y="290" width="120" height="80" as="geometry" />
        </mxCell>
        <mxCell id="mvhSTo44je8Wj7MuLDzE-14" value="Просмотреть список тестов" style="ellipse;whiteSpace=wrap;html=1;" parent="mvhSTo44je8Wj7MuLDzE-6" vertex="1">
          <mxGeometry x="20" y="590" width="120" height="80" as="geometry" />
        </mxCell>
        <mxCell id="mvhSTo44je8Wj7MuLDzE-15" value="Просмотреть статистику" style="ellipse;whiteSpace=wrap;html=1;" parent="mvhSTo44je8Wj7MuLDzE-6" vertex="1">
          <mxGeometry x="320" y="590" width="120" height="80" as="geometry" />
        </mxCell>
        <mxCell id="MvQgMZ7BI3ZKvnjpF798-9" value="Работа с тестом" style="ellipse;whiteSpace=wrap;html=1;" vertex="1" parent="mvhSTo44je8Wj7MuLDzE-6">
          <mxGeometry x="35" y="200" width="120" height="80" as="geometry" />
        </mxCell>
        <mxCell id="MvQgMZ7BI3ZKvnjpF798-11" value="" style="endArrow=none;html=1;rounded=0;entryX=0.012;entryY=0.684;entryDx=0;entryDy=0;entryPerimeter=0;exitX=0.705;exitY=0.025;exitDx=0;exitDy=0;exitPerimeter=0;" edge="1" parent="mvhSTo44je8Wj7MuLDzE-6" source="MvQgMZ7BI3ZKvnjpF798-9" target="mvhSTo44je8Wj7MuLDzE-9">
          <mxGeometry width="50" height="50" relative="1" as="geometry">
            <mxPoint x="140" y="200" as="sourcePoint" />
            <mxPoint x="190" y="150" as="targetPoint" />
          </mxGeometry>
        </mxCell>
        <mxCell id="MvQgMZ7BI3ZKvnjpF798-12" value="" style="endArrow=none;html=1;rounded=0;entryX=0;entryY=0.5;entryDx=0;entryDy=0;exitX=1;exitY=0.5;exitDx=0;exitDy=0;" edge="1" parent="mvhSTo44je8Wj7MuLDzE-6" source="MvQgMZ7BI3ZKvnjpF798-9" target="mvhSTo44je8Wj7MuLDzE-10">
          <mxGeometry width="50" height="50" relative="1" as="geometry">
            <mxPoint x="130" y="212" as="sourcePoint" />
            <mxPoint x="241" y="155" as="targetPoint" />
          </mxGeometry>
        </mxCell>
        <mxCell id="MvQgMZ7BI3ZKvnjpF798-13" value="" style="endArrow=none;html=1;rounded=0;exitX=0.97;exitY=0.775;exitDx=0;exitDy=0;exitPerimeter=0;" edge="1" parent="mvhSTo44je8Wj7MuLDzE-6" source="MvQgMZ7BI3ZKvnjpF798-9" target="mvhSTo44je8Wj7MuLDzE-13">
          <mxGeometry width="50" height="50" relative="1" as="geometry">
            <mxPoint x="165" y="250" as="sourcePoint" />
            <mxPoint x="240" y="240" as="targetPoint" />
          </mxGeometry>
        </mxCell>
        <mxCell id="MvQgMZ7BI3ZKvnjpF798-14" value="Взаимодействие с тестом" style="ellipse;whiteSpace=wrap;html=1;" vertex="1" parent="mvhSTo44je8Wj7MuLDzE-6">
          <mxGeometry x="170" y="420" width="120" height="80" as="geometry" />
        </mxCell>
        <mxCell id="MvQgMZ7BI3ZKvnjpF798-15" value="" style="endArrow=none;html=1;rounded=0;exitX=0.5;exitY=0;exitDx=0;exitDy=0;entryX=0;entryY=1;entryDx=0;entryDy=0;" edge="1" parent="mvhSTo44je8Wj7MuLDzE-6" source="mvhSTo44je8Wj7MuLDzE-14" target="MvQgMZ7BI3ZKvnjpF798-14">
          <mxGeometry width="50" height="50" relative="1" as="geometry">
            <mxPoint x="70" y="560" as="sourcePoint" />
            <mxPoint x="120" y="510" as="targetPoint" />
          </mxGeometry>
        </mxCell>
        <mxCell id="MvQgMZ7BI3ZKvnjpF798-16" value="" style="endArrow=none;html=1;rounded=0;entryX=0.5;entryY=1;entryDx=0;entryDy=0;" edge="1" parent="mvhSTo44je8Wj7MuLDzE-6" source="mvhSTo44je8Wj7MuLDzE-8" target="MvQgMZ7BI3ZKvnjpF798-14">
          <mxGeometry width="50" height="50" relative="1" as="geometry">
            <mxPoint x="90" y="600" as="sourcePoint" />
            <mxPoint x="198" y="498" as="targetPoint" />
          </mxGeometry>
        </mxCell>
        <mxCell id="MvQgMZ7BI3ZKvnjpF798-17" value="" style="endArrow=none;html=1;rounded=0;entryX=1;entryY=1;entryDx=0;entryDy=0;exitX=0.5;exitY=0;exitDx=0;exitDy=0;" edge="1" parent="mvhSTo44je8Wj7MuLDzE-6" source="mvhSTo44je8Wj7MuLDzE-15" target="MvQgMZ7BI3ZKvnjpF798-14">
          <mxGeometry width="50" height="50" relative="1" as="geometry">
            <mxPoint x="240" y="600" as="sourcePoint" />
            <mxPoint x="240" y="510" as="targetPoint" />
          </mxGeometry>
        </mxCell>
        <mxCell id="MvQgMZ7BI3ZKvnjpF798-21" value="Просмотреть статистику" style="ellipse;whiteSpace=wrap;html=1;" vertex="1" parent="mvhSTo44je8Wj7MuLDzE-6">
          <mxGeometry x="35" y="61.72000000000003" width="120" height="80" as="geometry" />
        </mxCell>
        <mxCell id="MvQgMZ7BI3ZKvnjpF798-22" value="" style="endArrow=none;html=1;rounded=0;entryX=0.5;entryY=0;entryDx=0;entryDy=0;exitX=0.542;exitY=0.979;exitDx=0;exitDy=0;exitPerimeter=0;" edge="1" source="MvQgMZ7BI3ZKvnjpF798-21" parent="mvhSTo44je8Wj7MuLDzE-6" target="MvQgMZ7BI3ZKvnjpF798-9">
          <mxGeometry width="50" height="50" relative="1" as="geometry">
            <mxPoint x="-45" y="71.72000000000003" as="sourcePoint" />
            <mxPoint x="-13" y="-40.27999999999997" as="targetPoint" />
          </mxGeometry>
        </mxCell>
        <mxCell id="mvhSTo44je8Wj7MuLDzE-19" value="" style="endArrow=none;html=1;rounded=0;exitX=1;exitY=0.3333333333333333;exitDx=0;exitDy=0;exitPerimeter=0;" parent="1" source="mvhSTo44je8Wj7MuLDzE-1" target="MvQgMZ7BI3ZKvnjpF798-9" edge="1">
          <mxGeometry width="50" height="50" relative="1" as="geometry">
            <mxPoint x="230" y="560" as="sourcePoint" />
            <mxPoint x="370" y="340" as="targetPoint" />
          </mxGeometry>
        </mxCell>
        <mxCell id="mvhSTo44je8Wj7MuLDzE-22" value="" style="endArrow=none;html=1;rounded=0;entryX=0;entryY=0.3333333333333333;entryDx=0;entryDy=0;entryPerimeter=0;exitX=0.989;exitY=0.355;exitDx=0;exitDy=0;exitPerimeter=0;" parent="1" source="MvQgMZ7BI3ZKvnjpF798-14" target="mvhSTo44je8Wj7MuLDzE-4" edge="1">
          <mxGeometry width="50" height="50" relative="1" as="geometry">
            <mxPoint x="640" y="650" as="sourcePoint" />
            <mxPoint x="750" y="580" as="targetPoint" />
          </mxGeometry>
        </mxCell>
        <mxCell id="MvQgMZ7BI3ZKvnjpF798-19" value="" style="endArrow=block;html=1;rounded=0;exitX=1;exitY=0.3333333333333333;exitDx=0;exitDy=0;exitPerimeter=0;endFill=0;" edge="1" parent="1">
          <mxGeometry width="50" height="50" relative="1" as="geometry">
            <mxPoint x="230" y="580" as="sourcePoint" />
            <mxPoint x="770" y="560" as="targetPoint" />
          </mxGeometry>
        </mxCell>
      </root>
    </mxGraphModel>
  </diagram>
</mxfile>
